<svg xmlns="http://www.w3.org/2000/svg" xmlns:xlink="http://www.w3.org/1999/xlink" width="357" zoomAndPan="magnify" viewBox="0 0 267.75 162.749997" height="217" preserveAspectRatio="xMidYMid meet" version="1.0"><defs><g/><clipPath id="0b85b481bd"><path d="M 32.007812 49.222656 L 64.0625 49.222656 L 64.0625 86.691406 L 32.007812 86.691406 Z M 32.007812 49.222656 " clip-rule="nonzero"/></clipPath><clipPath id="6f79a68c3e"><path d="M 146.550781 49.222656 L 179.742188 49.222656 L 179.742188 80.378906 L 146.550781 80.378906 Z M 146.550781 49.222656 " clip-rule="nonzero"/></clipPath></defs><g fill="#ffa500" fill-opacity="1"><g transform="translate(21.597417, 113.375808)"><g><path d="M 9.6875 -68.296875 L 30.25 -68.59375 C 33.707031 -68.59375 36.851562 -68.109375 39.6875 -67.140625 C 42.519531 -66.179688 44.929688 -64.769531 46.921875 -62.90625 C 48.921875 -61.039062 50.453125 -58.722656 51.515625 -55.953125 C 52.578125 -53.191406 53.109375 -50.015625 53.109375 -46.421875 C 53.109375 -42.828125 52.5625 -39.632812 51.46875 -36.84375 C 50.375 -34.050781 48.828125 -31.703125 46.828125 -29.796875 C 44.828125 -27.898438 42.410156 -26.46875 39.578125 -25.5 C 36.753906 -24.539062 33.644531 -24.0625 30.25 -24.0625 L 19.671875 -24.0625 L 19.671875 0 C 18.941406 0.132812 18.109375 0.234375 17.171875 0.296875 C 16.242188 0.367188 15.28125 0.40625 14.28125 0.40625 C 13.34375 0.40625 12.40625 0.367188 11.46875 0.296875 C 10.539062 0.234375 9.742188 0.132812 9.078125 0 L 9.078125 -67.59375 Z M 19.671875 -32.453125 L 29.859375 -32.546875 C 32.117188 -32.546875 34.03125 -32.925781 35.59375 -33.6875 C 37.15625 -34.457031 38.398438 -35.472656 39.328125 -36.734375 C 40.265625 -38.003906 40.945312 -39.46875 41.375 -41.125 C 41.8125 -42.789062 42.03125 -44.523438 42.03125 -46.328125 C 42.03125 -48.191406 41.8125 -49.953125 41.375 -51.609375 C 40.945312 -53.273438 40.265625 -54.738281 39.328125 -56 C 38.398438 -57.269531 37.15625 -58.269531 35.59375 -59 C 34.03125 -59.738281 32.148438 -60.109375 29.953125 -60.109375 C 27.617188 -60.109375 25.601562 -60.109375 23.90625 -60.109375 C 22.207031 -60.109375 20.796875 -60.140625 19.671875 -60.203125 Z M 19.671875 -32.453125 "/></g></g></g><g fill="#ffa500" fill-opacity="1"><g transform="translate(78.308118, 113.375808)"><g><path d="M 19.46875 -13.78125 L 19.375 -8.6875 C 21.363281 -8.882812 23.554688 -8.984375 25.953125 -8.984375 L 51.8125 -8.984375 C 51.8125 -7.191406 51.710938 -5.828125 51.515625 -4.890625 C 50.921875 -1.566406 48.660156 0.09375 44.734375 0.09375 L 15.078125 0.09375 C 13.210938 0.09375 11.726562 -0.484375 10.625 -1.640625 C 9.53125 -2.804688 8.984375 -4.421875 8.984375 -6.484375 L 8.984375 -67.59375 L 9.6875 -68.1875 L 49.828125 -68.1875 C 50.023438 -67.125 50.125 -65.707031 50.125 -63.9375 C 50.125 -62.175781 49.859375 -60.597656 49.328125 -59.203125 L 19.375 -59.203125 L 19.46875 -52.71875 L 19.46875 -38.734375 L 25.65625 -38.84375 L 44.4375 -38.84375 C 44.757812 -37.644531 44.921875 -36.160156 44.921875 -34.390625 C 44.921875 -32.628906 44.757812 -31.179688 44.4375 -30.046875 L 25.65625 -30.046875 C 23.0625 -30.046875 21 -30.082031 19.46875 -30.15625 Z M 19.46875 -13.78125 "/></g></g></g><g fill="#ffa500" fill-opacity="1"><g transform="translate(134.819128, 113.375808)"><g><path d="M 9.6875 -68.296875 L 31.15625 -68.59375 C 38.207031 -68.59375 43.742188 -66.8125 47.765625 -63.25 C 51.796875 -59.6875 53.8125 -54.644531 53.8125 -48.125 C 53.8125 -43.664062 52.628906 -39.820312 50.265625 -36.59375 C 47.910156 -33.363281 44.832031 -31.148438 41.03125 -29.953125 C 44.164062 -28.816406 46.53125 -25.988281 48.125 -21.46875 L 52.515625 -9.78125 C 53.785156 -6.320312 55.285156 -3.925781 57.015625 -2.59375 C 55.546875 -0.394531 53.148438 0.703125 49.828125 0.703125 C 47.960938 0.703125 46.546875 0.203125 45.578125 -0.796875 C 44.609375 -1.796875 43.691406 -3.460938 42.828125 -5.796875 L 37.84375 -19.265625 C 36.84375 -21.929688 35.625 -23.960938 34.1875 -25.359375 C 32.757812 -26.753906 30.613281 -27.453125 27.75 -27.453125 L 19.5625 -27.453125 L 19.5625 0 C 18.164062 0.269531 16.398438 0.40625 14.265625 0.40625 C 12.140625 0.40625 10.410156 0.269531 9.078125 0 L 9.078125 -67.59375 Z M 19.5625 -60.3125 L 19.5625 -35.9375 C 24.757812 -36.070312 28.457031 -36.140625 30.65625 -36.140625 C 35.113281 -36.140625 38.253906 -37.269531 40.078125 -39.53125 C 41.910156 -41.800781 42.828125 -44.664062 42.828125 -48.125 C 42.828125 -56.175781 38.769531 -60.203125 30.65625 -60.203125 C 25.53125 -60.203125 21.832031 -60.238281 19.5625 -60.3125 Z M 19.5625 -60.3125 "/></g></g></g><g fill="#ffa500" fill-opacity="1"><g transform="translate(194.724792, 113.375808)"><g><path d="M 28.5625 -9.1875 L 48.421875 -9.1875 C 48.421875 -7.71875 48.320312 -6.316406 48.125 -4.984375 C 47.519531 -1.597656 45.222656 0.09375 41.234375 0.09375 L 15.171875 0.09375 C 13.304688 0.09375 11.804688 -0.484375 10.671875 -1.640625 C 9.546875 -2.804688 8.984375 -4.421875 8.984375 -6.484375 L 8.984375 -68 L 9.6875 -68.59375 L 13.671875 -68.59375 C 15.867188 -68.59375 17.414062 -68.054688 18.3125 -66.984375 C 19.21875 -65.921875 19.671875 -64.191406 19.671875 -61.796875 L 19.671875 -8.78125 C 22.398438 -9.050781 25.363281 -9.1875 28.5625 -9.1875 Z M 28.5625 -9.1875 "/></g></g></g><g clip-path="url(#0b85b481bd)"><path fill="#ffa500" d="M 32.007812 49.222656 L 64.0625 49.222656 L 64.0625 86.660156 L 32.007812 86.660156 Z M 32.007812 49.222656 " fill-opacity="1" fill-rule="nonzero"/></g><g clip-path="url(#6f79a68c3e)"><path fill="#ffa500" d="M 146.550781 49.222656 L 179.78125 49.222656 L 179.78125 80.378906 L 146.550781 80.378906 Z M 146.550781 49.222656 " fill-opacity="1" fill-rule="nonzero"/></g></svg>