<svg xmlns="http://www.w3.org/2000/svg" xmlns:xlink="http://www.w3.org/1999/xlink" width="500" zoomAndPan="magnify" viewBox="0 0 375 374.999991" height="500" preserveAspectRatio="xMidYMid meet" version="1.0"><defs><g/><clipPath id="3d605b080f"><path d="M 85.628906 155.496094 L 117.730469 155.496094 L 117.730469 193 L 85.628906 193 Z M 85.628906 155.496094 " clip-rule="nonzero"/></clipPath><clipPath id="52c88f879d"><path d="M 200.347656 155.496094 L 233.589844 155.496094 L 233.589844 186.703125 L 200.347656 186.703125 Z M 200.347656 155.496094 " clip-rule="nonzero"/></clipPath></defs><g fill="#ffa500" fill-opacity="1"><g transform="translate(75.201561, 219.749986)"><g><path d="M 9.703125 -68.40625 L 30.296875 -68.703125 C 33.765625 -68.703125 36.914062 -68.21875 39.75 -67.25 C 42.582031 -66.28125 45 -64.863281 47 -63 C 49 -61.132812 50.53125 -58.816406 51.59375 -56.046875 C 52.664062 -53.285156 53.203125 -50.101562 53.203125 -46.5 C 53.203125 -42.894531 52.648438 -39.691406 51.546875 -36.890625 C 50.453125 -34.097656 48.90625 -31.75 46.90625 -29.84375 C 44.90625 -27.945312 42.488281 -26.515625 39.65625 -25.546875 C 36.820312 -24.578125 33.703125 -24.09375 30.296875 -24.09375 L 19.703125 -24.09375 L 19.703125 0 C 18.960938 0.132812 18.125 0.234375 17.1875 0.296875 C 16.257812 0.367188 15.296875 0.40625 14.296875 0.40625 C 13.367188 0.40625 12.4375 0.367188 11.5 0.296875 C 10.5625 0.234375 9.757812 0.132812 9.09375 0 L 9.09375 -67.703125 Z M 19.703125 -32.5 L 29.90625 -32.59375 C 32.164062 -32.59375 34.078125 -32.976562 35.640625 -33.75 C 37.210938 -34.519531 38.460938 -35.535156 39.390625 -36.796875 C 40.328125 -38.066406 41.007812 -39.535156 41.4375 -41.203125 C 41.875 -42.867188 42.09375 -44.601562 42.09375 -46.40625 C 42.09375 -48.269531 41.875 -50.035156 41.4375 -51.703125 C 41.007812 -53.367188 40.328125 -54.832031 39.390625 -56.09375 C 38.460938 -57.363281 37.210938 -58.363281 35.640625 -59.09375 C 34.078125 -59.832031 32.195312 -60.203125 30 -60.203125 C 27.664062 -60.203125 25.648438 -60.203125 23.953125 -60.203125 C 22.253906 -60.203125 20.835938 -60.234375 19.703125 -60.296875 Z M 19.703125 -32.5 "/></g></g></g><g fill="#ffa500" fill-opacity="1"><g transform="translate(131.999375, 219.749986)"><g><path d="M 19.5 -13.796875 L 19.40625 -8.703125 C 21.40625 -8.898438 23.601562 -9 26 -9 L 51.90625 -9 C 51.90625 -7.195312 51.800781 -5.832031 51.59375 -4.90625 C 51 -1.570312 48.734375 0.09375 44.796875 0.09375 L 15.09375 0.09375 C 13.226562 0.09375 11.742188 -0.488281 10.640625 -1.65625 C 9.546875 -2.820312 9 -4.4375 9 -6.5 L 9 -67.703125 L 9.703125 -68.296875 L 49.90625 -68.296875 C 50.101562 -67.234375 50.203125 -65.816406 50.203125 -64.046875 C 50.203125 -62.285156 49.9375 -60.703125 49.40625 -59.296875 L 19.40625 -59.296875 L 19.5 -52.796875 L 19.5 -38.796875 L 25.703125 -38.90625 L 44.5 -38.90625 C 44.832031 -37.695312 45 -36.207031 45 -34.4375 C 45 -32.675781 44.832031 -31.226562 44.5 -30.09375 L 25.703125 -30.09375 C 23.097656 -30.09375 21.03125 -30.128906 19.5 -30.203125 Z M 19.5 -13.796875 "/></g></g></g><g fill="#ffa500" fill-opacity="1"><g transform="translate(188.597191, 219.749986)"><g><path d="M 9.703125 -68.40625 L 31.203125 -68.703125 C 38.265625 -68.703125 43.8125 -66.914062 47.84375 -63.34375 C 51.882812 -59.78125 53.90625 -54.734375 53.90625 -48.203125 C 53.90625 -43.734375 52.71875 -39.878906 50.34375 -36.640625 C 47.976562 -33.410156 44.894531 -31.195312 41.09375 -30 C 44.226562 -28.863281 46.597656 -26.03125 48.203125 -21.5 L 52.59375 -9.796875 C 53.863281 -6.328125 55.363281 -3.925781 57.09375 -2.59375 C 55.632812 -0.394531 53.238281 0.703125 49.90625 0.703125 C 48.03125 0.703125 46.609375 0.203125 45.640625 -0.796875 C 44.679688 -1.796875 43.769531 -3.460938 42.90625 -5.796875 L 37.90625 -19.296875 C 36.90625 -21.960938 35.6875 -23.992188 34.25 -25.390625 C 32.8125 -26.796875 30.660156 -27.5 27.796875 -27.5 L 19.59375 -27.5 L 19.59375 0 C 18.195312 0.269531 16.429688 0.40625 14.296875 0.40625 C 12.160156 0.40625 10.425781 0.269531 9.09375 0 L 9.09375 -67.703125 Z M 19.59375 -60.40625 L 19.59375 -36 C 24.800781 -36.132812 28.503906 -36.203125 30.703125 -36.203125 C 35.171875 -36.203125 38.320312 -37.332031 40.15625 -39.59375 C 41.988281 -41.863281 42.90625 -44.734375 42.90625 -48.203125 C 42.90625 -56.265625 38.835938 -60.296875 30.703125 -60.296875 C 25.566406 -60.296875 21.863281 -60.332031 19.59375 -60.40625 Z M 19.59375 -60.40625 "/></g></g></g><g fill="#ffa500" fill-opacity="1"><g transform="translate(248.594876, 219.749986)"><g><path d="M 28.59375 -9.203125 L 48.5 -9.203125 C 48.5 -7.734375 48.398438 -6.332031 48.203125 -5 C 47.597656 -1.601562 45.296875 0.09375 41.296875 0.09375 L 15.203125 0.09375 C 13.335938 0.09375 11.835938 -0.488281 10.703125 -1.65625 C 9.566406 -2.820312 9 -4.4375 9 -6.5 L 9 -68.09375 L 9.703125 -68.703125 L 13.703125 -68.703125 C 15.898438 -68.703125 17.445312 -68.164062 18.34375 -67.09375 C 19.25 -66.03125 19.703125 -64.300781 19.703125 -61.90625 L 19.703125 -8.796875 C 22.429688 -9.066406 25.394531 -9.203125 28.59375 -9.203125 Z M 28.59375 -9.203125 "/></g></g></g><g clip-path="url(#3d605b080f)"><path fill="#ffa500" d="M 85.628906 155.496094 L 117.730469 155.496094 L 117.730469 192.992188 L 85.628906 192.992188 Z M 85.628906 155.496094 " fill-opacity="1" fill-rule="nonzero"/></g><g clip-path="url(#52c88f879d)"><path fill="#ffa500" d="M 200.347656 155.496094 L 233.628906 155.496094 L 233.628906 186.703125 L 200.347656 186.703125 Z M 200.347656 155.496094 " fill-opacity="1" fill-rule="nonzero"/></g></svg>